<svg width="24" height="24" viewBox="0 0 24 24" fill="none" xmlns="http://www.w3.org/2000/svg">
<path d="M22.0576 6.94588C21.9381 6.50191 21.7041 6.09711 21.3789 5.77201C21.0538 5.4469 20.649 5.21288 20.2051 5.09338C18.5701 4.65088 12.0001 4.65088 12.0001 4.65088C12.0001 4.65088 5.43008 4.65088 3.79508 5.09338C3.35111 5.21288 2.94631 5.4469 2.6212 5.77201C2.29609 6.09711 2.06208 6.50191 1.94258 6.94588C1.63729 8.61333 1.48914 10.3057 1.50008 12.0009C1.48914 13.696 1.63729 15.3884 1.94258 17.0559C2.06208 17.4998 2.29609 17.9046 2.6212 18.2298C2.94631 18.5549 3.35111 18.7889 3.79508 18.9084C5.43008 19.3509 12.0001 19.3509 12.0001 19.3509C12.0001 19.3509 18.5701 19.3509 20.2051 18.9084C20.649 18.7889 21.0538 18.5549 21.3789 18.2298C21.7041 17.9046 21.9381 17.4998 22.0576 17.0559C22.3629 15.3884 22.511 13.696 22.5001 12.0009C22.511 10.3057 22.3629 8.61333 22.0576 6.94588ZM9.90008 15.1509V8.85088L15.3526 12.0009L9.90008 15.1509Z" fill="white"/>
</svg>
