<svg width="24" height="24" viewBox="0 0 24 24" fill="none" xmlns="http://www.w3.org/2000/svg">
<path d="M20.0025 3.00098H3.9975C3.73355 3.00294 3.48097 3.10866 3.29433 3.29531C3.10769 3.48195 3.00196 3.73453 3 3.99848V20.0035C3.00196 20.2674 3.10769 20.52 3.29433 20.7066C3.48097 20.8933 3.73355 20.999 3.9975 21.001H12.615V14.041H10.275V11.3185H12.615V9.31598C12.615 6.99098 14.0325 5.72348 16.1175 5.72348C16.815 5.72348 17.5125 5.72348 18.21 5.82848V8.25098H16.7775C15.645 8.25098 15.4275 8.79098 15.4275 9.57848V11.311H18.1275L17.775 14.0335H15.4275V21.001H20.0025C20.2664 20.999 20.519 20.8933 20.7057 20.7066C20.8923 20.52 20.998 20.2674 21 20.0035V3.99848C20.998 3.73453 20.8923 3.48195 20.7057 3.29531C20.519 3.10866 20.2664 3.00294 20.0025 3.00098Z" fill="white"/>
</svg>
