<svg width="24" height="24" viewBox="0 0 24 24" fill="none" xmlns="http://www.w3.org/2000/svg">
<path d="M19.65 3.00098H4.35C3.6 3.00098 3 3.60098 3 4.27598V19.651C3 20.326 3.6 20.926 4.35 20.926H19.65C20.4 20.926 21 20.326 21 19.651V4.27598C21 3.60098 20.4 3.00098 19.65 3.00098ZM8.325 18.301H5.7V9.75098H8.325V18.301ZM7.05 8.55098C6.225 8.55098 5.475 7.87598 5.475 6.97598C5.475 6.07598 6.15 5.40098 7.05 5.40098C7.875 5.40098 8.625 6.07598 8.625 6.97598C8.625 7.87598 7.875 8.55098 7.05 8.55098ZM18.375 18.226H15.75V14.026C15.75 13.051 15.75 11.701 14.325 11.701C12.9 11.701 12.75 12.826 12.75 13.876V18.151H10.125V9.75098H12.6V10.876H12.675C13.05 10.201 13.95 9.45098 15.225 9.45098C17.925 9.45098 18.45 11.251 18.45 13.576V18.226H18.375Z" fill="white"/>
</svg>
