<svg width="24" height="24" viewBox="0 0 24 24" fill="none" xmlns="http://www.w3.org/2000/svg">
    <path d="M16.8046 8.27645C17.4011 8.27645 17.8846 7.79292 17.8846 7.19645C17.8846 6.59999 17.4011 6.11646 16.8046 6.11646C16.2081 6.11646 15.7246 6.59999 15.7246 7.19645C15.7246 7.79292 16.2081 8.27645 16.8046 8.27645Z" fill="white"/>
    <path d="M12.0001 7.37939C11.086 7.37939 10.1924 7.65045 9.43242 8.15828C8.67239 8.66612 8.08002 9.38792 7.73022 10.2324C7.38042 11.0769 7.2889 12.0062 7.46722 12.9027C7.64555 13.7992 8.08572 14.6227 8.73207 15.269C9.37842 15.9154 10.2019 16.3556 11.0984 16.5339C11.9949 16.7122 12.9242 16.6207 13.7687 16.2709C14.6132 15.9211 15.335 15.3287 15.8428 14.5687C16.3507 13.8087 16.6217 12.9151 16.6217 12.001C16.6217 10.7753 16.1348 9.59977 15.2681 8.73304C14.4013 7.86632 13.2258 7.37939 12.0001 7.37939ZM12.0001 15.001C11.4067 15.001 10.8267 14.8251 10.3334 14.4955C9.84001 14.1658 9.45549 13.6973 9.22843 13.1491C9.00137 12.6009 8.94196 11.9977 9.05771 11.4158C9.17347 10.8338 9.45919 10.2993 9.87875 9.87972C10.2983 9.46017 10.8329 9.17444 11.4148 9.05869C11.9967 8.94293 12.5999 9.00234 13.1481 9.22941C13.6963 9.45647 14.1648 9.84099 14.4945 10.3343C14.8241 10.8277 15.0001 11.4077 15.0001 12.001C15.0001 12.7967 14.684 13.5598 14.1214 14.1224C13.5588 14.685 12.7957 15.001 12.0001 15.001Z" fill="white"/>
    <path d="M12 4.62263C14.4031 4.62263 14.6878 4.63178 15.6368 4.67513C16.2075 4.68192 16.7728 4.78675 17.308 4.98503C17.6961 5.13479 18.0486 5.36413 18.3428 5.6583C18.6369 5.95247 18.8663 6.30495 19.016 6.69308C19.2143 7.22828 19.3191 7.79359 19.3259 8.3643C19.3692 9.31328 19.3784 9.59798 19.3784 12.0011C19.3784 14.4041 19.3693 14.6888 19.3259 15.6378C19.3191 16.2085 19.2143 16.7738 19.016 17.309C18.8663 17.6972 18.6369 18.0496 18.3428 18.3438C18.0486 18.638 17.6961 18.8673 17.308 19.0171C16.7728 19.2154 16.2075 19.3202 15.6368 19.327C14.6879 19.3703 14.4033 19.3795 12 19.3795C9.5967 19.3795 9.31215 19.3703 8.36325 19.327C7.79253 19.3202 7.22723 19.2154 6.69202 19.0171C6.3039 18.8673 5.95142 18.638 5.65725 18.3438C5.36308 18.0496 5.13374 17.6972 4.98397 17.309C4.78569 16.7738 4.68087 16.2085 4.67408 15.6378C4.6308 14.6888 4.62157 14.4041 4.62157 12.0011C4.62157 9.59798 4.63073 9.31328 4.67408 8.3643C4.68087 7.79359 4.78569 7.22828 4.98397 6.69308C5.13373 6.30494 5.36307 5.95244 5.65724 5.65826C5.95141 5.36408 6.30389 5.13472 6.69202 4.98495C7.22723 4.78667 7.79253 4.68185 8.36325 4.67505C9.31222 4.63178 9.59693 4.62255 12 4.62255M12 3.00098C9.55575 3.00098 9.24922 3.01133 8.2893 3.05513C7.54279 3.07011 6.80422 3.21157 6.105 3.47348C5.50705 3.70471 4.96401 4.05833 4.51068 4.51165C4.05735 4.96498 3.70374 5.50803 3.4725 6.10598C3.21055 6.80532 3.06909 7.54401 3.05415 8.29065C3.01035 9.2502 3 9.55673 3 12.001C3 14.4452 3.01035 14.7518 3.05415 15.7117C3.0691 16.4583 3.21056 17.197 3.4725 17.8964C3.70374 18.4943 4.05735 19.0373 4.51068 19.4907C4.96401 19.944 5.50705 20.2976 6.105 20.5289C6.80434 20.7908 7.54304 20.9323 8.28968 20.9472C9.24923 20.9906 9.55575 21.001 12 21.001C14.4443 21.001 14.7508 20.9906 15.7107 20.9468C16.4573 20.9319 17.196 20.7904 17.8954 20.5285C18.4933 20.2972 19.0364 19.9436 19.4897 19.4903C19.943 19.037 20.2966 18.4939 20.5279 17.896C20.7898 17.1966 20.9313 16.4579 20.9462 15.7113C20.9897 14.7518 21 14.4452 21 12.001C21 9.55673 20.9896 9.2502 20.9459 8.29028C20.9309 7.54376 20.7894 6.8052 20.5275 6.10598C20.2962 5.5081 19.9426 4.96513 19.4893 4.51186C19.0359 4.0586 18.4929 3.70505 17.895 3.47385C17.1957 3.21191 16.457 3.07046 15.7103 3.0555C14.7508 3.01133 14.4443 3.00098 12 3.00098Z" fill="white"/>
</svg>
